<svg width="30" height="30" viewBox="0 0 30 30" fill="none" xmlns="http://www.w3.org/2000/svg">
<path d="M26.625 26.25C27.75 25.3125 30 23.25 30 20.25C30 17.625 27.75 15.375 24.75 14.0625C25.6875 12.9375 26.25 11.25 26.25 9.56247C26.25 4.31247 20.8125 -3.05176e-05 13.875 -3.05176e-05C7.3125 -3.05176e-05 0 3.93747 0 9.56247C0 13.5 3 16.3125 4.3125 17.4375C4.125 19.6875 3.1875 20.625 3.1875 20.625L0.9375 22.5H3.75C6 22.5 7.875 21.9375 9.375 21.1875C9.9375 24.75 14.0625 27.5625 19.3125 27.5625H20.25C21.375 28.5 23.625 30 26.8125 30H29.4375L27.375 28.3125C27.375 28.3125 26.8125 27.75 26.625 26.25ZM19.3125 25.6875C15 25.6875 11.25 23.25 11.25 20.4375C11.25 20.25 11.25 20.25 11.25 20.0625C11.625 19.6875 12 19.5 12.1875 19.125H13.5C17.4375 19.125 21 17.8125 23.25 15.5625C26.0625 16.5 28.125 18.375 28.125 20.25C28.125 22.125 26.4375 24 24.9375 24.9375L24.375 25.3125V25.875C24.375 26.8125 24.75 27.375 24.9375 27.9375C23.0625 27.5625 21.75 26.625 21.375 26.0625L21.1875 25.6875H20.8125C20.25 25.6875 19.6875 25.6875 19.3125 25.6875ZM13.875 1.87497C19.6875 1.87497 24.375 5.43747 24.375 9.56247C24.375 13.6875 19.5 17.25 13.5 17.25C13.125 17.25 12.375 17.25 12 17.25H11.4375L11.25 17.625C10.6875 18.375 8.4375 19.875 5.4375 20.4375C5.625 19.6875 5.625 18.5625 5.625 17.0625V16.5C3.75 15 1.6875 12.375 1.6875 9.74997C1.6875 5.62497 7.6875 1.87497 13.875 1.87497Z" fill="black"/>
</svg>
