<svg width="30" height="30" viewBox="0 0 30 30" fill="none" xmlns="http://www.w3.org/2000/svg">
<path d="M28.3334 12.8933V25.8333C28.3334 28.1345 26.4679 30 24.1667 30H19.1667C18.7065 30 18.3334 29.6269 18.3334 29.1667V19.1667C18.3334 18.7064 17.9603 18.3333 17.5 18.3333H12.5C12.0398 18.3333 11.6667 18.7064 11.6667 19.1667V29.1667C11.6667 29.6269 11.2936 30 10.8334 30H5.83336C3.53217 30 1.66669 28.1345 1.66669 25.8333V12.8933L1.36311 13.1433C1.00784 13.4359 0.482658 13.385 0.190082 13.0298C-0.102494 12.6745 -0.0516703 12.1493 0.303601 11.8567L14.4703 0.190058C14.778 -0.0633527 15.2221 -0.0633527 15.5298 0.190058L29.6964 11.8567C30.0517 12.1493 30.1025 12.6745 29.81 13.0298C29.5174 13.385 28.9922 13.4359 28.6369 13.1433L28.3334 12.8933ZM26.6779 11.5299L15 1.91288L3.32219 11.5299C3.32954 11.5744 3.33336 11.6201 3.33336 11.6667V25.8333C3.33336 27.214 4.45265 28.3333 5.83336 28.3333H10V19.1667C10 17.786 11.1193 16.6667 12.5 16.6667H17.5C18.8807 16.6667 20 17.786 20 19.1667V28.3333H24.1667C25.5474 28.3333 26.6667 27.214 26.6667 25.8333V11.6667C26.6667 11.6201 26.6705 11.5744 26.6779 11.5299Z" fill="black"/>
</svg>
