<svg width="30" height="33" viewBox="0 0 30 33" fill="none" xmlns="http://www.w3.org/2000/svg">
<path d="M29.6467 0.194505C29.5367 0.108611 29.4085 0.0489222 29.272 0.0199727C29.1354 -0.0089769 28.9941 -0.00642585 28.8587 0.0274322L9.26269 4.92643C9.06395 4.97611 8.88752 5.0908 8.76145 5.25227C8.63538 5.41373 8.5669 5.6127 8.56689 5.81756V23.2867C7.66291 22.5199 6.52418 22.0849 5.33924 22.0536C4.15429 22.0224 2.9942 22.3967 2.05104 23.1147C1.10788 23.8327 0.438219 24.8513 0.152923 26.0018C-0.132372 27.1523 -0.0161856 28.3658 0.482244 29.4412C0.980675 30.5167 1.83145 31.3897 2.89372 31.9157C3.95599 32.4417 5.16604 32.5891 6.32352 32.3335C7.481 32.078 8.51649 31.4348 9.25855 30.5104C10.0006 29.5861 10.4047 28.436 10.404 27.2507V13.8832L28.1629 9.44351V18.3877C27.2589 17.6209 26.1202 17.1859 24.9352 17.1547C23.7503 17.1234 22.5902 17.4977 21.647 18.2157C20.7039 18.9337 20.0342 19.9523 19.7489 21.1028C19.4636 22.2533 19.5798 23.4668 20.0782 24.5422C20.5767 25.6177 21.4274 26.4907 22.4897 27.0167C23.552 27.5427 24.762 27.6901 25.9195 27.4345C27.077 27.179 28.1125 26.5358 28.8545 25.6114C29.5966 24.6871 30.0007 23.537 30 22.3517V0.91856C30 0.778963 29.9682 0.641205 29.9069 0.515745C29.8457 0.390286 29.7567 0.280425 29.6467 0.194505ZM5.19883 30.6187C4.53269 30.6187 3.88151 30.4212 3.32763 30.0511C2.77376 29.681 2.34207 29.155 2.08715 28.5396C1.83223 27.9241 1.76553 27.2469 1.89548 26.5936C2.02544 25.9402 2.34622 25.3401 2.81725 24.8691C3.28828 24.3981 3.88841 24.0773 4.54175 23.9473C5.19509 23.8174 5.8723 23.8841 6.48773 24.139C7.10316 24.3939 7.62918 24.8256 7.99927 25.3795C8.36935 25.9333 8.56689 26.5845 8.56689 27.2507C8.56588 28.1436 8.21071 28.9997 7.57929 29.6311C6.94788 30.2625 6.09178 30.6177 5.19883 30.6187ZM10.404 11.9896V6.53473L28.1629 2.09502V7.54988L10.404 11.9896ZM24.7948 25.7197C24.1287 25.7197 23.4775 25.5222 22.9236 25.1521C22.3697 24.782 21.9381 24.256 21.6831 23.6406C21.4282 23.0251 21.3615 22.3479 21.4915 21.6946C21.6214 21.0413 21.9422 20.4411 22.4132 19.9701C22.8843 19.4991 23.4844 19.1783 24.1377 19.0483C24.7911 18.9184 25.4683 18.9851 26.0837 19.24C26.6991 19.4949 27.2252 19.9266 27.5953 20.4805C27.9653 21.0343 28.1629 21.6855 28.1629 22.3517C28.1619 23.2446 27.8067 24.1007 27.1753 24.7321C26.5439 25.3635 25.6878 25.7187 24.7948 25.7197Z" fill="black"/>
</svg>
