<svg width="30" height="30" viewBox="0 0 30 30" fill="none" xmlns="http://www.w3.org/2000/svg">
<path d="M20.771 16.7638L27.2522 19.7098C28.9256 20.4705 30 22.139 30 23.9772V25.3125C30 27.9013 27.9013 30 25.3125 30H4.6875C2.09867 30 0 27.9013 0 25.3125V23.9772C0 22.139 1.07439 20.4705 2.7478 19.7098L9.22905 16.7638C7.03517 15.0479 5.625 12.3761 5.625 9.375C5.625 4.19733 9.82233 0 15 0C20.1777 0 24.375 4.19733 24.375 9.375C24.375 12.3761 22.9648 15.0479 20.771 16.7638ZM11.1774 17.9378L3.52368 21.4168C2.51963 21.8732 1.875 22.8743 1.875 23.9772V25.3125C1.875 26.8658 3.1342 28.125 4.6875 28.125H25.3125C26.8658 28.125 28.125 26.8658 28.125 25.3125V23.9772C28.125 22.8743 27.4804 21.8732 26.4763 21.4168L18.8226 17.9378C17.6552 18.4598 16.3615 18.75 15 18.75C13.6385 18.75 12.3448 18.4598 11.1774 17.9378ZM15 16.875C19.1421 16.875 22.5 13.5171 22.5 9.375C22.5 5.23286 19.1421 1.875 15 1.875C10.8579 1.875 7.5 5.23286 7.5 9.375C7.5 13.5171 10.8579 16.875 15 16.875Z" fill="black"/>
</svg>
